<svg xmlns="http://www.w3.org/2000/svg" width="1600" height="1000" viewBox="0 0 1600 1000">
  <rect width="1600" height="1000" fill="#f6dde7"/>
  <rect width="1600" height="1000" fill="url(#dots)"/>
  <defs>
    <pattern id="dots" width="30" height="30" patternUnits="userSpaceOnUse">
      <circle cx="8" cy="8" r="1.6" fill="#27314d" fill-opacity="0.12"/>
    </pattern>
  </defs>
  <rect x="30" y="30" width="1540" height="940" rx="30"
        fill="#ffffff" fill-opacity="0.55" stroke="#27314d" stroke-opacity="0.25"
        stroke-width="4" stroke-dasharray="16 12"/>
  <rect x="560" y="300" width="150" height="100" rx="12" transform="rotate(-3 560 300)" fill="#ffffff" stroke="#27314d" stroke-opacity="0.35" stroke-width="6" /><rect x="780" y="260" width="150" height="100" rx="12" transform="rotate(2 780 260)" fill="#ffffff" stroke="#27314d" stroke-opacity="0.35" stroke-width="6" /><rect x="980" y="340" width="150" height="100" rx="12" transform="rotate(-2 980 340)" fill="#ffffff" stroke="#27314d" stroke-opacity="0.35" stroke-width="6" /><rect x="640" y="500" width="150" height="100" rx="12" transform="rotate(2 640 500)" fill="#ffffff" stroke="#27314d" stroke-opacity="0.35" stroke-width="6" /><rect x="850" y="480" width="150" height="100" rx="12" transform="rotate(-1 850 480)" fill="#ffffff" stroke="#27314d" stroke-opacity="0.35" stroke-width="6" />
  <text x="50%" y="810" text-anchor="middle" font-family="Georgia, serif"
        font-size="52" font-weight="600" fill="#27314d">FABS Rental Marketing</text>
  <text x="50%" y="865" text-anchor="middle" font-family="system-ui, sans-serif"
        font-size="26" fill="#27314d" fill-opacity="0.75">Marketing · positioning board</text>
  <text x="50%" y="925" text-anchor="middle" font-family="ui-monospace, monospace"
        font-size="20" letter-spacing="2" fill="#667085">PLACEHOLDER FRAME · REAL VISUALS BEING ADDED</text>
</svg>
