<svg xmlns="http://www.w3.org/2000/svg" width="1600" height="900" viewBox="0 0 1600 900">
  <rect width="1600" height="900" fill="#dceeff"/>
  <rect width="1600" height="900" fill="url(#dots)"/>
  <defs>
    <pattern id="dots" width="27" height="27" patternUnits="userSpaceOnUse">
      <circle cx="7.2" cy="7.2" r="1.4400000000000002" fill="#27314d" fill-opacity="0.12"/>
    </pattern>
  </defs>
  <rect x="27" y="27" width="1546" height="846" rx="27"
        fill="#ffffff" fill-opacity="0.55" stroke="#27314d" stroke-opacity="0.25"
        stroke-width="3.6" stroke-dasharray="14.4 10.8"/>
  <rect x="359" y="355.5" width="117" height="81" rx="18" stroke="#27314d" stroke-opacity="0.35" stroke-width="5.4" fill="none"/><path d="M 476 396 q 48.6 -27 45 0" stroke="#27314d" stroke-opacity="0.35" stroke-width="5.4" fill="none" marker-end="none"/><rect x="521" y="355.5" width="117" height="81" rx="18" stroke="#27314d" stroke-opacity="0.35" stroke-width="5.4" fill="none"/><path d="M 638 396 q 48.6 -27 45 0" stroke="#27314d" stroke-opacity="0.35" stroke-width="5.4" fill="none" marker-end="none"/><rect x="683" y="355.5" width="117" height="81" rx="18" stroke="#27314d" stroke-opacity="0.35" stroke-width="5.4" fill="none"/><path d="M 800 396 q 48.6 -27 45 0" stroke="#27314d" stroke-opacity="0.35" stroke-width="5.4" fill="none" marker-end="none"/><rect x="845" y="355.5" width="117" height="81" rx="18" stroke="#27314d" stroke-opacity="0.35" stroke-width="5.4" fill="none"/><path d="M 962 396 q 48.6 -27 45 0" stroke="#27314d" stroke-opacity="0.35" stroke-width="5.4" fill="none" marker-end="none"/><rect x="1007" y="355.5" width="117" height="81" rx="18" stroke="#27314d" stroke-opacity="0.35" stroke-width="5.4" fill="none"/>
  <text x="50%" y="729" text-anchor="middle" font-family="Georgia, serif"
        font-size="46.8" font-weight="600" fill="#27314d">HostelWalla — process</text>
  <text x="50%" y="778.5" text-anchor="middle" font-family="system-ui, sans-serif"
        font-size="23.4" fill="#27314d" fill-opacity="0.75">Search habits → comparison-first design</text>
  <text x="50%" y="832.5" text-anchor="middle" font-family="ui-monospace, monospace"
        font-size="18" letter-spacing="1.8" fill="#667085">PLACEHOLDER FRAME · REAL VISUALS BEING ADDED</text>
</svg>
