<svg xmlns="http://www.w3.org/2000/svg" width="1600" height="900" viewBox="0 0 1600 900">
  <rect width="1600" height="900" fill="#ddf1ea"/>
  <rect width="1600" height="900" fill="url(#dots)"/>
  <defs>
    <pattern id="dots" width="27" height="27" patternUnits="userSpaceOnUse">
      <circle cx="7.2" cy="7.2" r="1.4400000000000002" fill="#27314d" fill-opacity="0.12"/>
    </pattern>
  </defs>
  <rect x="27" y="27" width="1546" height="846" rx="27"
        fill="#ffffff" fill-opacity="0.55" stroke="#27314d" stroke-opacity="0.25"
        stroke-width="3.6" stroke-dasharray="14.4 10.8"/>
  <rect x="584" y="270" width="135" height="90" rx="10.8" transform="rotate(-3 584 270)" fill="#ffffff" stroke="#27314d" stroke-opacity="0.35" stroke-width="5.4" /><rect x="782" y="234" width="135" height="90" rx="10.8" transform="rotate(2 782 234)" fill="#ffffff" stroke="#27314d" stroke-opacity="0.35" stroke-width="5.4" /><rect x="962" y="306" width="135" height="90" rx="10.8" transform="rotate(-2 962 306)" fill="#ffffff" stroke="#27314d" stroke-opacity="0.35" stroke-width="5.4" /><rect x="656" y="450" width="135" height="90" rx="10.8" transform="rotate(2 656 450)" fill="#ffffff" stroke="#27314d" stroke-opacity="0.35" stroke-width="5.4" /><rect x="845" y="432" width="135" height="90" rx="10.8" transform="rotate(-1 845 432)" fill="#ffffff" stroke="#27314d" stroke-opacity="0.35" stroke-width="5.4" />
  <text x="50%" y="729" text-anchor="middle" font-family="Georgia, serif"
        font-size="46.8" font-weight="600" fill="#27314d">Climate & Health — evidence tracking</text>
  <text x="50%" y="778.5" text-anchor="middle" font-family="system-ui, sans-serif"
        font-size="23.4" fill="#27314d" fill-opacity="0.75">Evidence & gap tracking</text>
  <text x="50%" y="832.5" text-anchor="middle" font-family="ui-monospace, monospace"
        font-size="18" letter-spacing="1.8" fill="#667085">PLACEHOLDER FRAME · REAL VISUALS BEING ADDED</text>
</svg>
